<?xml version="1.0" encoding="UTF-8" standalone="no"?>
<!DOCTYPE svg PUBLIC "-//W3C//DTD SVG 1.1//EN"
 "http://www.w3.org/Graphics/SVG/1.1/DTD/svg11.dtd">
<!-- Generated by graphviz version 2.43.0 (0)
 -->
<!-- Title: dependency&#45;cruiser output Pages: 1 -->
<svg width="478pt" height="812pt"
 viewBox="0.00 0.00 478.00 812.00" xmlns="http://www.w3.org/2000/svg" xmlns:xlink="http://www.w3.org/1999/xlink">
<g id="graph0" class="graph" transform="scale(1 1) rotate(0) translate(4 808)">
<title>dependency&#45;cruiser output</title>
<polygon fill="white" stroke="transparent" points="-4,4 -4,-808 474,-808 474,4 -4,4"/>
<g id="clust1" class="cluster">
<title>cluster_.</title>
<path fill="#ffffff" stroke="black" stroke-width="2" d="M189,-214C189,-214 295,-214 295,-214 301,-214 307,-220 307,-226 307,-226 307,-318 307,-318 307,-324 301,-330 295,-330 295,-330 189,-330 189,-330 183,-330 177,-324 177,-318 177,-318 177,-226 177,-226 177,-220 183,-214 189,-214"/>
<text text-anchor="middle" x="242" y="-318.8" font-family="Helvetica,sans-Serif" font-weight="bold" font-size="9.00">.</text>
</g>
<g id="clust2" class="cluster">
<title>cluster_./pages</title>
<path fill="#ffffff" stroke="black" stroke-width="2" d="M197,-222C197,-222 287,-222 287,-222 293,-222 299,-228 299,-234 299,-234 299,-292 299,-292 299,-298 293,-304 287,-304 287,-304 197,-304 197,-304 191,-304 185,-298 185,-292 185,-292 185,-234 185,-234 185,-228 191,-222 197,-222"/>
<text text-anchor="middle" x="242" y="-292.8" font-family="Helvetica,sans-Serif" font-weight="bold" font-size="9.00">pages</text>
</g>
<g id="clust3" class="cluster">
<title>cluster_@</title>
<path fill="#ffffff" stroke="black" stroke-width="2" d="M359.5,-244C359.5,-244 421.5,-244 421.5,-244 427.5,-244 433.5,-250 433.5,-256 433.5,-256 433.5,-318 433.5,-318 433.5,-324 427.5,-330 421.5,-330 421.5,-330 359.5,-330 359.5,-330 353.5,-330 347.5,-324 347.5,-318 347.5,-318 347.5,-256 347.5,-256 347.5,-250 353.5,-244 359.5,-244"/>
<text text-anchor="middle" x="390.5" y="-318.8" font-family="Helvetica,sans-Serif" font-weight="bold" font-size="9.00">@</text>
</g>
<g id="clust4" class="cluster">
<title>cluster_@/firebase</title>
<path fill="#ffffff" stroke="black" stroke-width="2" d="M367.5,-252C367.5,-252 413.5,-252 413.5,-252 419.5,-252 425.5,-258 425.5,-264 425.5,-264 425.5,-292 425.5,-292 425.5,-298 419.5,-304 413.5,-304 413.5,-304 367.5,-304 367.5,-304 361.5,-304 355.5,-298 355.5,-292 355.5,-292 355.5,-264 355.5,-264 355.5,-258 361.5,-252 367.5,-252"/>
<text text-anchor="middle" x="390.5" y="-292.8" font-family="Helvetica,sans-Serif" font-weight="bold" font-size="9.00">firebase</text>
</g>
<g id="clust5" class="cluster">
<title>cluster_node_modules</title>
<path fill="#ffffff" stroke="black" stroke-width="2" d="M348,-8C348,-8 433,-8 433,-8 439,-8 445,-14 445,-20 445,-20 445,-168 445,-168 445,-174 439,-180 433,-180 433,-180 348,-180 348,-180 342,-180 336,-174 336,-168 336,-168 336,-20 336,-20 336,-14 342,-8 348,-8"/>
<text text-anchor="middle" x="390.5" y="-168.8" font-family="Helvetica,sans-Serif" font-weight="bold" font-size="9.00">node_modules</text>
</g>
<g id="clust6" class="cluster">
<title>cluster_src</title>
<path fill="#ffffff" stroke="black" stroke-width="2" d="M20,-338C20,-338 450,-338 450,-338 456,-338 462,-344 462,-350 462,-350 462,-784 462,-784 462,-790 456,-796 450,-796 450,-796 20,-796 20,-796 14,-796 8,-790 8,-784 8,-784 8,-350 8,-350 8,-344 14,-338 20,-338"/>
<text text-anchor="middle" x="235" y="-784.8" font-family="Helvetica,sans-Serif" font-weight="bold" font-size="9.00">src</text>
</g>
<g id="clust7" class="cluster">
<title>cluster_src/components</title>
<path fill="#ffffff" stroke="black" stroke-width="2" d="M160,-346C160,-346 442,-346 442,-346 448,-346 454,-352 454,-358 454,-358 454,-758 454,-758 454,-764 448,-770 442,-770 442,-770 160,-770 160,-770 154,-770 148,-764 148,-758 148,-758 148,-358 148,-358 148,-352 154,-346 160,-346"/>
<text text-anchor="middle" x="301" y="-758.8" font-family="Helvetica,sans-Serif" font-weight="bold" font-size="9.00">components</text>
</g>
<g id="clust8" class="cluster">
<title>cluster_src/components/analysis</title>
<path fill="#ffffff" stroke="black" stroke-width="2" d="M177,-598C177,-598 307,-598 307,-598 313,-598 319,-604 319,-610 319,-610 319,-672 319,-672 319,-678 313,-684 307,-684 307,-684 177,-684 177,-684 171,-684 165,-678 165,-672 165,-672 165,-610 165,-610 165,-604 171,-598 177,-598"/>
<text text-anchor="middle" x="242" y="-672.8" font-family="Helvetica,sans-Serif" font-weight="bold" font-size="9.00">analysis</text>
</g>
<g id="clust9" class="cluster">
<title>cluster_src/components/analysis/components</title>
<path fill="#ffffff" stroke="black" stroke-width="2" d="M185,-606C185,-606 299,-606 299,-606 305,-606 311,-612 311,-618 311,-618 311,-646 311,-646 311,-652 305,-658 299,-658 299,-658 185,-658 185,-658 179,-658 173,-652 173,-646 173,-646 173,-618 173,-618 173,-612 179,-606 185,-606"/>
<text text-anchor="middle" x="242" y="-646.8" font-family="Helvetica,sans-Serif" font-weight="bold" font-size="9.00">components</text>
</g>
<g id="clust10" class="cluster">
<title>cluster_src/components/presupuestos</title>
<path fill="#ffffff" stroke="black" stroke-width="2" d="M168,-380C168,-380 316,-380 316,-380 322,-380 328,-386 328,-392 328,-392 328,-484 328,-484 328,-490 322,-496 316,-496 316,-496 168,-496 168,-496 162,-496 156,-490 156,-484 156,-484 156,-392 156,-392 156,-386 162,-380 168,-380"/>
<text text-anchor="middle" x="242" y="-484.8" font-family="Helvetica,sans-Serif" font-weight="bold" font-size="9.00">presupuestos</text>
</g>
<g id="clust11" class="cluster">
<title>cluster_src/components/presupuestos/utils</title>
<path fill="#ffffff" stroke="black" stroke-width="2" d="M176,-388C176,-388 308,-388 308,-388 314,-388 320,-394 320,-400 320,-400 320,-458 320,-458 320,-464 314,-470 308,-470 308,-470 176,-470 176,-470 170,-470 164,-464 164,-458 164,-458 164,-400 164,-400 164,-394 170,-388 176,-388"/>
<text text-anchor="middle" x="242" y="-458.8" font-family="Helvetica,sans-Serif" font-weight="bold" font-size="9.00">utils</text>
</g>
<g id="clust12" class="cluster">
<title>cluster_src/components/prices</title>
<path fill="#ffffff" stroke="black" stroke-width="2" d="M218,-692C218,-692 434,-692 434,-692 440,-692 446,-698 446,-704 446,-704 446,-732 446,-732 446,-738 440,-744 434,-744 434,-744 218,-744 218,-744 212,-744 206,-738 206,-732 206,-732 206,-704 206,-704 206,-698 212,-692 218,-692"/>
<text text-anchor="middle" x="326" y="-732.8" font-family="Helvetica,sans-Serif" font-weight="bold" font-size="9.00">prices</text>
</g>
<g id="clust13" class="cluster">
<title>cluster_src/components/shared</title>
<path fill="#ffffff" stroke="black" stroke-width="2" d="M168,-504C168,-504 316,-504 316,-504 322,-504 328,-510 328,-516 328,-516 328,-578 328,-578 328,-584 322,-590 316,-590 316,-590 168,-590 168,-590 162,-590 156,-584 156,-578 156,-578 156,-516 156,-516 156,-510 162,-504 168,-504"/>
<text text-anchor="middle" x="242" y="-578.8" font-family="Helvetica,sans-Serif" font-weight="bold" font-size="9.00">shared</text>
</g>
<g id="clust14" class="cluster">
<title>cluster_src/components/shared/inputs</title>
<path fill="#ffffff" stroke="black" stroke-width="2" d="M176,-512C176,-512 308,-512 308,-512 314,-512 320,-518 320,-524 320,-524 320,-552 320,-552 320,-558 314,-564 308,-564 308,-564 176,-564 176,-564 170,-564 164,-558 164,-552 164,-552 164,-524 164,-524 164,-518 170,-512 176,-512"/>
<text text-anchor="middle" x="242" y="-552.8" font-family="Helvetica,sans-Serif" font-weight="bold" font-size="9.00">inputs</text>
</g>
<g id="clust15" class="cluster">
<title>cluster_src/utils</title>
<path fill="#ffffff" stroke="black" stroke-width="2" d="M28,-545C28,-545 128,-545 128,-545 134,-545 140,-551 140,-557 140,-557 140,-585 140,-585 140,-591 134,-597 128,-597 128,-597 28,-597 28,-597 22,-597 16,-591 16,-585 16,-585 16,-557 16,-557 16,-551 22,-545 28,-545"/>
<text text-anchor="middle" x="78" y="-585.8" font-family="Helvetica,sans-Serif" font-weight="bold" font-size="9.00">utils</text>
</g>
<!-- ./PriceManagement -->
<g id="node1" class="node">
<title>./PriceManagement</title>
<g id="a_node1"><a xlink:title="PriceManagement">
<path fill="#ffffcc" stroke="black" d="M433.5,-206C433.5,-206 347.5,-206 347.5,-206 344.5,-206 341.5,-203 341.5,-200 341.5,-200 341.5,-194 341.5,-194 341.5,-191 344.5,-188 347.5,-188 347.5,-188 433.5,-188 433.5,-188 436.5,-188 439.5,-191 439.5,-194 439.5,-194 439.5,-200 439.5,-200 439.5,-203 436.5,-206 433.5,-206"/>
<text text-anchor="start" x="349.5" y="-194.8" font-family="Helvetica,sans-Serif" font-size="9.00">PriceManagement</text>
</a>
</g>
</g>
<!-- ./pages/PresupuestoPage -->
<g id="node2" class="node">
<title>./pages/PresupuestoPage</title>
<g id="a_node2"><a xlink:title="PresupuestoPage">
<path fill="#ffffcc" stroke="black" d="M283,-278C283,-278 201,-278 201,-278 198,-278 195,-275 195,-272 195,-272 195,-266 195,-266 195,-263 198,-260 201,-260 201,-260 283,-260 283,-260 286,-260 289,-263 289,-266 289,-266 289,-272 289,-272 289,-275 286,-278 283,-278"/>
<text text-anchor="start" x="203" y="-266.8" font-family="Helvetica,sans-Serif" font-size="9.00">PresupuestoPage</text>
</a>
</g>
</g>
<!-- ./pages/PresupuestosLista -->
<g id="node3" class="node">
<title>./pages/PresupuestosLista</title>
<g id="a_node3"><a xlink:title="PresupuestosLista">
<path fill="#ffffcc" stroke="black" d="M285,-248C285,-248 199,-248 199,-248 196,-248 193,-245 193,-242 193,-242 193,-236 193,-236 193,-233 196,-230 199,-230 199,-230 285,-230 285,-230 288,-230 291,-233 291,-236 291,-236 291,-242 291,-242 291,-245 288,-248 285,-248"/>
<text text-anchor="start" x="201" y="-236.8" font-family="Helvetica,sans-Serif" font-size="9.00">PresupuestosLista</text>
</a>
</g>
</g>
<!-- ./useMaterialsData -->
<g id="node4" class="node">
<title>./useMaterialsData</title>
<g id="a_node4"><a xlink:title="useMaterialsData">
<path fill="#ffffcc" stroke="black" d="M431,-236C431,-236 350,-236 350,-236 347,-236 344,-233 344,-230 344,-230 344,-224 344,-224 344,-221 347,-218 350,-218 350,-218 431,-218 431,-218 434,-218 437,-221 437,-224 437,-224 437,-230 437,-230 437,-233 434,-236 431,-236"/>
<text text-anchor="start" x="352" y="-224.8" font-family="Helvetica,sans-Serif" font-size="9.00">useMaterialsData</text>
</a>
</g>
</g>
<!-- @/firebase/config -->
<g id="node5" class="node">
<title>@/firebase/config</title>
<g id="a_node5"><a xlink:title="config">
<path fill="#ffffcc" stroke="black" d="M411.5,-278C411.5,-278 369.5,-278 369.5,-278 366.5,-278 363.5,-275 363.5,-272 363.5,-272 363.5,-266 363.5,-266 363.5,-263 366.5,-260 369.5,-260 369.5,-260 411.5,-260 411.5,-260 414.5,-260 417.5,-263 417.5,-266 417.5,-266 417.5,-272 417.5,-272 417.5,-275 414.5,-278 411.5,-278"/>
<text text-anchor="start" x="376" y="-266.8" font-family="Helvetica,sans-Serif" font-size="9.00">config</text>
</a>
</g>
</g>
<!-- node_modules/firebase -->
<g id="node6" class="node">
<title>node_modules/firebase</title>
<g id="a_node6"><a xlink:href="https://www.npmjs.com/package/firebase" xlink:title="firebase">
<polygon fill="#c40b0a" fill-opacity="0.101961" stroke="black" points="417.5,-124 365.5,-124 363.5,-122 363.5,-106 415.5,-106 417.5,-108 417.5,-124"/>
<polyline fill="none" stroke="black" points="415.5,-122 363.5,-122 "/>
<polyline fill="none" stroke="black" points="415.5,-122 415.5,-106 "/>
<polyline fill="none" stroke="black" points="415.5,-122 417.5,-124 "/>
<text text-anchor="middle" x="390.5" y="-112.8" font-family="Helvetica,sans-Serif" font-size="9.00" fill="#c40b0a">firebase</text>
</a>
</g>
</g>
<!-- node_modules/lucide&#45;react -->
<g id="node7" class="node">
<title>node_modules/lucide&#45;react</title>
<g id="a_node7"><a xlink:href="https://www.npmjs.com/package/lucide-react" xlink:title="lucide&#45;react">
<polygon fill="#c40b0a" fill-opacity="0.101961" stroke="black" points="425.5,-94 357.5,-94 355.5,-92 355.5,-76 423.5,-76 425.5,-78 425.5,-94"/>
<polyline fill="none" stroke="black" points="423.5,-92 355.5,-92 "/>
<polyline fill="none" stroke="black" points="423.5,-92 423.5,-76 "/>
<polyline fill="none" stroke="black" points="423.5,-92 425.5,-94 "/>
<text text-anchor="start" x="363.5" y="-82.8" font-family="Helvetica,sans-Serif" font-size="9.00" fill="#c40b0a">lucide&#45;react</text>
</a>
</g>
</g>
<!-- node_modules/react -->
<g id="node8" class="node">
<title>node_modules/react</title>
<g id="a_node8"><a xlink:href="https://www.npmjs.com/package/react" xlink:title="react">
<polygon fill="#c40b0a" fill-opacity="0.101961" stroke="black" points="417.5,-64 365.5,-64 363.5,-62 363.5,-46 415.5,-46 417.5,-48 417.5,-64"/>
<polyline fill="none" stroke="black" points="415.5,-62 363.5,-62 "/>
<polyline fill="none" stroke="black" points="415.5,-62 415.5,-46 "/>
<polyline fill="none" stroke="black" points="415.5,-62 417.5,-64 "/>
<text text-anchor="start" x="378.5" y="-52.8" font-family="Helvetica,sans-Serif" font-size="9.00" fill="#c40b0a">react</text>
</a>
</g>
</g>
<!-- node_modules/react&#45;router&#45;dom -->
<g id="node9" class="node">
<title>node_modules/react&#45;router&#45;dom</title>
<g id="a_node9"><a xlink:href="https://www.npmjs.com/package/react-router-dom" xlink:title="react&#45;router&#45;dom">
<polygon fill="#c40b0a" fill-opacity="0.101961" stroke="black" points="437,-34 346,-34 344,-32 344,-16 435,-16 437,-18 437,-34"/>
<polyline fill="none" stroke="black" points="435,-32 344,-32 "/>
<polyline fill="none" stroke="black" points="435,-32 435,-16 "/>
<polyline fill="none" stroke="black" points="435,-32 437,-34 "/>
<text text-anchor="start" x="352" y="-22.8" font-family="Helvetica,sans-Serif" font-size="9.00" fill="#c40b0a">react&#45;router&#45;dom</text>
</a>
</g>
</g>
<!-- node_modules/react&#45;toastify -->
<g id="node10" class="node">
<title>node_modules/react&#45;toastify</title>
<g id="a_node10"><a xlink:href="https://www.npmjs.com/package/react-toastify" xlink:title="react&#45;toastify">
<polygon fill="#c40b0a" fill-opacity="0.101961" stroke="black" points="428.5,-154 354.5,-154 352.5,-152 352.5,-136 426.5,-136 428.5,-138 428.5,-154"/>
<polyline fill="none" stroke="black" points="426.5,-152 352.5,-152 "/>
<polyline fill="none" stroke="black" points="426.5,-152 426.5,-136 "/>
<polyline fill="none" stroke="black" points="426.5,-152 428.5,-154 "/>
<text text-anchor="start" x="360.5" y="-142.8" font-family="Helvetica,sans-Serif" font-size="9.00" fill="#c40b0a">react&#45;toastify</text>
</a>
</g>
</g>
<!-- src/AppRoutes.jsx -->
<g id="node11" class="node">
<title>src/AppRoutes.jsx</title>
<g id="a_node11"><a xlink:href="src/AppRoutes.jsx" xlink:title="AppRoutes.jsx">
<path fill="#ffff77" stroke="black" d="M112,-364C112,-364 44,-364 44,-364 41,-364 38,-361 38,-358 38,-358 38,-352 38,-352 38,-349 41,-346 44,-346 44,-346 112,-346 112,-346 115,-346 118,-349 118,-352 118,-352 118,-358 118,-358 118,-361 115,-364 112,-364"/>
<text text-anchor="start" x="46" y="-352.8" font-family="Helvetica,sans-Serif" font-size="9.00">AppRoutes.jsx</text>
</a>
</g>
</g>
<!-- src/AppRoutes.jsx&#45;&gt;./pages/PresupuestoPage -->
<g id="edge2" class="edge">
<title>src/AppRoutes.jsx&#45;&gt;./pages/PresupuestoPage</title>
<g id="a_edge2"><a xlink:title="not&#45;to&#45;unresolvable">
<path fill="none" stroke="red" stroke-width="2" d="M96.03,-345.96C125.37,-330.39 185.43,-298.5 218.29,-281.05"/>
<polygon fill="red" stroke="red" stroke-width="2" points="219.4,-282.85 223.71,-278.18 217.43,-279.14 219.4,-282.85"/>
</a>
</g>
<text text-anchor="middle" x="115.58" y="-305.02" font-family="Helvetica,sans-Serif" font-size="9.00" fill="red">not&#45;to&#45;unresolvable</text>
</g>
<!-- src/AppRoutes.jsx&#45;&gt;./pages/PresupuestosLista -->
<g id="edge3" class="edge">
<title>src/AppRoutes.jsx&#45;&gt;./pages/PresupuestosLista</title>
<g id="a_edge3"><a xlink:title="not&#45;to&#45;unresolvable">
<path fill="none" stroke="red" stroke-width="2" d="M82.31,-345.88C90.2,-325.61 112.14,-276.76 148,-254 159.49,-246.7 173.35,-242.56 186.81,-240.3"/>
<polygon fill="red" stroke="red" stroke-width="2" points="187.33,-242.35 192.96,-239.39 186.72,-238.19 187.33,-242.35"/>
</a>
</g>
<text text-anchor="middle" x="76.72" y="-271.37" font-family="Helvetica,sans-Serif" font-size="9.00" fill="red">not&#45;to&#45;unresolvable</text>
</g>
<!-- src/AppRoutes.jsx&#45;&gt;node_modules/react -->
<g id="edge4" class="edge">
<title>src/AppRoutes.jsx&#45;&gt;node_modules/react</title>
<path fill="none" stroke="#000000" stroke-opacity="0.200000" d="M82.04,-345.96C90.07,-322.96 113.66,-261.03 148,-219 215.46,-136.44 241.03,-118.45 336,-70 342.65,-66.61 350.16,-63.9 357.41,-61.77"/>
<polygon fill="#000000" fill-opacity="0.200000" stroke="#000000" stroke-opacity="0.200000" points="358.19,-63.73 363.41,-60.11 357.07,-59.68 358.19,-63.73"/>
</g>
<!-- src/AppRoutes.jsx&#45;&gt;node_modules/react&#45;router&#45;dom -->
<g id="edge5" class="edge">
<title>src/AppRoutes.jsx&#45;&gt;node_modules/react&#45;router&#45;dom</title>
<path fill="none" stroke="#000000" stroke-opacity="0.200000" d="M79.92,-345.88C84.53,-301.8 106.65,-111.45 148,-72 198.59,-23.73 283.22,-17.98 337.68,-20.1"/>
<polygon fill="#000000" fill-opacity="0.200000" stroke="#000000" stroke-opacity="0.200000" points="337.75,-22.2 343.84,-20.38 337.94,-18.01 337.75,-22.2"/>
</g>
<!-- src/components/Navigation.jsx -->
<g id="node12" class="node">
<title>src/components/Navigation.jsx</title>
<g id="a_node12"><a xlink:href="src/components/Navigation.jsx" xlink:title="Navigation.jsx">
<path fill="#ffff77" stroke="black" d="M276,-372C276,-372 208,-372 208,-372 205,-372 202,-369 202,-366 202,-366 202,-360 202,-360 202,-357 205,-354 208,-354 208,-354 276,-354 276,-354 279,-354 282,-357 282,-360 282,-360 282,-366 282,-366 282,-369 279,-372 276,-372"/>
<text text-anchor="start" x="210" y="-360.8" font-family="Helvetica,sans-Serif" font-size="9.00">Navigation.jsx</text>
</a>
</g>
</g>
<!-- src/AppRoutes.jsx&#45;&gt;src/components/Navigation.jsx -->
<g id="edge1" class="edge">
<title>src/AppRoutes.jsx&#45;&gt;src/components/Navigation.jsx</title>
<path fill="none" stroke="#000000" stroke-width="2" stroke-opacity="0.200000" d="M118.22,-356.94C141.61,-358.09 171.41,-359.56 195.79,-360.77"/>
<polygon fill="#000000" fill-opacity="0.200000" stroke="#000000" stroke-width="2" stroke-opacity="0.200000" points="195.77,-362.87 201.87,-361.07 195.98,-358.67 195.77,-362.87"/>
</g>
<!-- src/components/Navigation.jsx&#45;&gt;node_modules/react -->
<g id="edge6" class="edge">
<title>src/components/Navigation.jsx&#45;&gt;node_modules/react</title>
<path fill="none" stroke="#000000" stroke-opacity="0.200000" d="M268.39,-353.87C288.44,-345.17 315.12,-329.97 328,-307 340.89,-284.02 319.73,-90.72 336,-70 341.17,-63.41 349,-59.56 357.07,-57.36"/>
<polygon fill="#000000" fill-opacity="0.200000" stroke="#000000" stroke-opacity="0.200000" points="357.86,-59.34 363.26,-55.98 356.95,-55.24 357.86,-59.34"/>
</g>
<!-- src/components/Navigation.jsx&#45;&gt;node_modules/react&#45;router&#45;dom -->
<g id="edge7" class="edge">
<title>src/components/Navigation.jsx&#45;&gt;node_modules/react&#45;router&#45;dom</title>
<path fill="none" stroke="#000000" stroke-opacity="0.200000" d="M268.41,-353.88C288.48,-345.19 315.17,-329.99 328,-307 342.47,-281.08 317.72,-63.38 336,-40 336.8,-38.97 337.67,-38.01 338.59,-37.12"/>
<polygon fill="#000000" fill-opacity="0.200000" stroke="#000000" stroke-opacity="0.200000" points="340.22,-38.51 343.62,-33.13 337.61,-35.22 340.22,-38.51"/>
</g>
<!-- src/components/analysis/components/UpdatePricesButton.jsx -->
<g id="node13" class="node">
<title>src/components/analysis/components/UpdatePricesButton.jsx</title>
<g id="a_node13"><a xlink:href="src/components/analysis/components/UpdatePricesButton.jsx" xlink:title="UpdatePricesButton.jsx">
<path fill="#ffff77" stroke="black" d="M297,-632C297,-632 187,-632 187,-632 184,-632 181,-629 181,-626 181,-626 181,-620 181,-620 181,-617 184,-614 187,-614 187,-614 297,-614 297,-614 300,-614 303,-617 303,-620 303,-620 303,-626 303,-626 303,-629 300,-632 297,-632"/>
<text text-anchor="start" x="189" y="-620.8" font-family="Helvetica,sans-Serif" font-size="9.00">UpdatePricesButton.jsx</text>
</a>
</g>
</g>
<!-- src/components/analysis/components/UpdatePricesButton.jsx&#45;&gt;@/firebase/config -->
<g id="edge8" class="edge">
<title>src/components/analysis/components/UpdatePricesButton.jsx&#45;&gt;@/firebase/config</title>
<g id="a_edge8"><a xlink:title="not&#45;to&#45;unresolvable">
<path fill="none" stroke="red" stroke-width="2" d="M265.84,-613.97C285.43,-605.01 312.83,-589.38 328,-567 360.13,-519.62 381.94,-338.88 387.87,-284.54"/>
<polygon fill="red" stroke="red" stroke-width="2" points="389.99,-284.47 388.54,-278.28 385.81,-284.02 389.99,-284.47"/>
</a>
</g>
<text text-anchor="middle" x="407.13" y="-446.13" font-family="Helvetica,sans-Serif" font-size="9.00" fill="red">not&#45;to&#45;unresolvable</text>
</g>
<!-- src/components/analysis/components/UpdatePricesButton.jsx&#45;&gt;node_modules/firebase -->
<g id="edge9" class="edge">
<title>src/components/analysis/components/UpdatePricesButton.jsx&#45;&gt;node_modules/firebase</title>
<path fill="none" stroke="#000000" stroke-opacity="0.200000" d="M268.48,-613.92C288.59,-605.25 315.3,-590.07 328,-567 339.71,-545.73 321.15,-149.21 336,-130 341.17,-123.31 349.07,-119.44 357.23,-117.25"/>
<polygon fill="#000000" fill-opacity="0.200000" stroke="#000000" stroke-opacity="0.200000" points="358.06,-119.22 363.48,-115.88 357.16,-115.11 358.06,-119.22"/>
</g>
<!-- src/components/analysis/components/UpdatePricesButton.jsx&#45;&gt;node_modules/lucide&#45;react -->
<g id="edge10" class="edge">
<title>src/components/analysis/components/UpdatePricesButton.jsx&#45;&gt;node_modules/lucide&#45;react</title>
<path fill="none" stroke="#000000" stroke-opacity="0.200000" d="M268.49,-613.92C288.6,-605.26 315.31,-590.07 328,-567 340.5,-544.26 320.15,-120.54 336,-100 339.51,-95.46 344.27,-92.22 349.52,-89.92"/>
<polygon fill="#000000" fill-opacity="0.200000" stroke="#000000" stroke-opacity="0.200000" points="350.46,-91.81 355.37,-87.77 349.01,-87.87 350.46,-91.81"/>
</g>
<!-- src/components/analysis/components/UpdatePricesButton.jsx&#45;&gt;node_modules/react -->
<g id="edge11" class="edge">
<title>src/components/analysis/components/UpdatePricesButton.jsx&#45;&gt;node_modules/react</title>
<path fill="none" stroke="#000000" stroke-opacity="0.200000" d="M268.49,-613.92C288.61,-605.26 315.33,-590.08 328,-567 341.29,-542.79 319.14,-91.87 336,-70 341.16,-63.3 349.06,-59.43 357.22,-57.24"/>
<polygon fill="#000000" fill-opacity="0.200000" stroke="#000000" stroke-opacity="0.200000" points="358.06,-59.21 363.47,-55.87 357.16,-55.11 358.06,-59.21"/>
</g>
<!-- src/components/analysis/components/UpdatePricesButton.jsx&#45;&gt;node_modules/react&#45;toastify -->
<g id="edge12" class="edge">
<title>src/components/analysis/components/UpdatePricesButton.jsx&#45;&gt;node_modules/react&#45;toastify</title>
<path fill="none" stroke="#000000" stroke-opacity="0.200000" d="M268.46,-613.91C288.57,-605.24 315.27,-590.05 328,-567 348.68,-529.54 315.74,-219.69 336,-182 341.73,-171.34 352.04,-163.12 362.08,-157.17"/>
<polygon fill="#000000" fill-opacity="0.200000" stroke="#000000" stroke-opacity="0.200000" points="363.39,-158.85 367.61,-154.09 361.35,-155.18 363.39,-158.85"/>
</g>
<!-- src/components/presupuestos/utils/DiagnosticoPresupuesto.jsx -->
<g id="node14" class="node">
<title>src/components/presupuestos/utils/DiagnosticoPresupuesto.jsx</title>
<g id="a_node14"><a xlink:href="src/components/presupuestos/utils/DiagnosticoPresupuesto.jsx" xlink:title="DiagnosticoPresupuesto.jsx">
<path fill="#ffff77" stroke="black" d="M306,-444C306,-444 178,-444 178,-444 175,-444 172,-441 172,-438 172,-438 172,-432 172,-432 172,-429 175,-426 178,-426 178,-426 306,-426 306,-426 309,-426 312,-429 312,-432 312,-432 312,-438 312,-438 312,-441 309,-444 306,-444"/>
<text text-anchor="start" x="180" y="-432.8" font-family="Helvetica,sans-Serif" font-size="9.00">DiagnosticoPresupuesto.jsx</text>
</a>
</g>
</g>
<!-- src/components/presupuestos/utils/DiagnosticoPresupuesto.jsx&#45;&gt;node_modules/react -->
<g id="edge13" class="edge">
<title>src/components/presupuestos/utils/DiagnosticoPresupuesto.jsx&#45;&gt;node_modules/react</title>
<path fill="none" stroke="#000000" stroke-opacity="0.200000" d="M312.09,-431.65C318.13,-428.9 323.61,-425.12 328,-420 340.67,-405.24 324.07,-85.36 336,-70 341.19,-63.32 349.09,-59.46 357.25,-57.26"/>
<polygon fill="#000000" fill-opacity="0.200000" stroke="#000000" stroke-opacity="0.200000" points="358.08,-59.23 363.49,-55.89 357.18,-55.13 358.08,-59.23"/>
</g>
<!-- src/components/presupuestos/utils/PresupuestoDiagnostico.jsx -->
<g id="node15" class="node">
<title>src/components/presupuestos/utils/PresupuestoDiagnostico.jsx</title>
<g id="a_node15"><a xlink:href="src/components/presupuestos/utils/PresupuestoDiagnostico.jsx" xlink:title="PresupuestoDiagnostico.jsx">
<path fill="#ffff77" stroke="black" d="M306,-414C306,-414 178,-414 178,-414 175,-414 172,-411 172,-408 172,-408 172,-402 172,-402 172,-399 175,-396 178,-396 178,-396 306,-396 306,-396 309,-396 312,-399 312,-402 312,-402 312,-408 312,-408 312,-411 309,-414 306,-414"/>
<text text-anchor="start" x="180" y="-402.8" font-family="Helvetica,sans-Serif" font-size="9.00">PresupuestoDiagnostico.jsx</text>
</a>
</g>
</g>
<!-- src/components/presupuestos/utils/PresupuestoDiagnostico.jsx&#45;&gt;node_modules/react -->
<g id="edge14" class="edge">
<title>src/components/presupuestos/utils/PresupuestoDiagnostico.jsx&#45;&gt;node_modules/react</title>
<path fill="none" stroke="#000000" stroke-opacity="0.200000" d="M312.4,-403.16C318.3,-400.55 323.66,-396.93 328,-392 339.83,-378.57 325.01,-84.12 336,-70 341.14,-63.39 348.96,-59.53 357.03,-57.33"/>
<polygon fill="#000000" fill-opacity="0.200000" stroke="#000000" stroke-opacity="0.200000" points="357.83,-59.31 363.22,-55.95 356.91,-55.21 357.83,-59.31"/>
</g>
<!-- src/components/prices/index.jsx -->
<g id="node16" class="node">
<title>src/components/prices/index.jsx</title>
<g id="a_node16"><a xlink:href="src/components/prices/index.jsx" xlink:title="index.jsx">
<path fill="#ffff77" stroke="black" d="M264,-718C264,-718 220,-718 220,-718 217,-718 214,-715 214,-712 214,-712 214,-706 214,-706 214,-703 217,-700 220,-700 220,-700 264,-700 264,-700 267,-700 270,-703 270,-706 270,-706 270,-712 270,-712 270,-715 267,-718 264,-718"/>
<text text-anchor="start" x="222" y="-706.8" font-family="Helvetica,sans-Serif" font-size="9.00">index.jsx</text>
</a>
</g>
</g>
<!-- src/components/prices/index.jsx&#45;&gt;./PriceManagement -->
<g id="edge16" class="edge">
<title>src/components/prices/index.jsx&#45;&gt;./PriceManagement</title>
<g id="a_edge16"><a xlink:title="not&#45;to&#45;unresolvable">
<path fill="none" stroke="red" stroke-width="2" d="M270.4,-701.52C290.18,-694.53 315.51,-681.97 328,-661 340.77,-639.57 320.75,-231.75 336,-212 336.44,-211.43 336.9,-210.88 337.39,-210.34"/>
<polygon fill="red" stroke="red" stroke-width="2" points="339.09,-211.64 342.17,-206.08 336.29,-208.5 339.09,-211.64"/>
</a>
</g>
<text text-anchor="middle" x="375.32" y="-456.22" font-family="Helvetica,sans-Serif" font-size="9.00" fill="red">not&#45;to&#45;unresolvable</text>
</g>
<!-- src/components/prices/index.jsx&#45;&gt;./useMaterialsData -->
<g id="edge17" class="edge">
<title>src/components/prices/index.jsx&#45;&gt;./useMaterialsData</title>
<g id="a_edge17"><a xlink:title="not&#45;to&#45;unresolvable">
<path fill="none" stroke="red" stroke-width="2" d="M270.39,-701.51C290.16,-694.52 315.49,-681.96 328,-661 339.73,-641.34 323.07,-267.89 336,-249 338.71,-245.04 342.28,-241.79 346.28,-239.12"/>
<polygon fill="red" stroke="red" stroke-width="2" points="347.43,-240.88 351.56,-236.05 345.32,-237.25 347.43,-240.88"/>
</a>
</g>
<text text-anchor="middle" x="287.7" y="-471.31" font-family="Helvetica,sans-Serif" font-size="9.00" fill="red">not&#45;to&#45;unresolvable</text>
</g>
<!-- src/components/prices/materialsStyles.js -->
<g id="node17" class="node">
<title>src/components/prices/materialsStyles.js</title>
<g id="a_node17"><a xlink:href="src/components/prices/materialsStyles.js" xlink:title="materialsStyles.js">
<path fill="#ffffcc" stroke="black" d="M432,-718C432,-718 349,-718 349,-718 346,-718 343,-715 343,-712 343,-712 343,-706 343,-706 343,-703 346,-700 349,-700 349,-700 432,-700 432,-700 435,-700 438,-703 438,-706 438,-706 438,-712 438,-712 438,-715 435,-718 432,-718"/>
<text text-anchor="start" x="351" y="-706.8" font-family="Helvetica,sans-Serif" font-size="9.00">materialsStyles.js</text>
</a>
</g>
</g>
<!-- src/components/prices/index.jsx&#45;&gt;src/components/prices/materialsStyles.js -->
<g id="edge15" class="edge">
<title>src/components/prices/index.jsx&#45;&gt;src/components/prices/materialsStyles.js</title>
<path fill="none" stroke="#000000" stroke-width="2" stroke-opacity="0.200000" d="M270.21,-709C288.82,-709 314.09,-709 336.58,-709"/>
<polygon fill="#000000" fill-opacity="0.200000" stroke="#000000" stroke-width="2" stroke-opacity="0.200000" points="342.85,-711.1 336.85,-709 342.85,-706.9 342.85,-711.1"/>
</g>
<!-- src/components/shared/inputs/DebouncedSearchInput.jsx -->
<g id="node18" class="node">
<title>src/components/shared/inputs/DebouncedSearchInput.jsx</title>
<g id="a_node18"><a xlink:href="src/components/shared/inputs/DebouncedSearchInput.jsx" xlink:title="DebouncedSearchInput.jsx">
<path fill="#ffff77" stroke="black" d="M306,-538C306,-538 178,-538 178,-538 175,-538 172,-535 172,-532 172,-532 172,-526 172,-526 172,-523 175,-520 178,-520 178,-520 306,-520 306,-520 309,-520 312,-523 312,-526 312,-526 312,-532 312,-532 312,-535 309,-538 306,-538"/>
<text text-anchor="start" x="180" y="-526.8" font-family="Helvetica,sans-Serif" font-size="9.00">DebouncedSearchInput.jsx</text>
</a>
</g>
</g>
<!-- src/components/shared/inputs/DebouncedSearchInput.jsx&#45;&gt;node_modules/lucide&#45;react -->
<g id="edge18" class="edge">
<title>src/components/shared/inputs/DebouncedSearchInput.jsx&#45;&gt;node_modules/lucide&#45;react</title>
<path fill="none" stroke="#000000" stroke-opacity="0.200000" d="M268.46,-519.91C288.56,-511.24 315.26,-496.05 328,-473 338.03,-454.86 323.3,-116.38 336,-100 339.52,-95.47 344.29,-92.23 349.54,-89.93"/>
<polygon fill="#000000" fill-opacity="0.200000" stroke="#000000" stroke-opacity="0.200000" points="350.48,-91.82 355.39,-87.79 349.03,-87.88 350.48,-91.82"/>
</g>
<!-- src/components/shared/inputs/DebouncedSearchInput.jsx&#45;&gt;node_modules/react -->
<g id="edge19" class="edge">
<title>src/components/shared/inputs/DebouncedSearchInput.jsx&#45;&gt;node_modules/react</title>
<path fill="none" stroke="#000000" stroke-opacity="0.200000" d="M268.47,-519.91C288.57,-511.24 315.28,-496.06 328,-473 338.82,-453.39 322.29,-87.71 336,-70 341.18,-63.31 349.08,-59.45 357.24,-57.25"/>
<polygon fill="#000000" fill-opacity="0.200000" stroke="#000000" stroke-opacity="0.200000" points="358.07,-59.22 363.48,-55.88 357.17,-55.12 358.07,-59.22"/>
</g>
<!-- src/utils/cleanLocalStorage.js -->
<g id="node19" class="node">
<title>src/utils/cleanLocalStorage.js</title>
<g id="a_node19"><a xlink:href="src/utils/cleanLocalStorage.js" xlink:title="no&#45;orphans">
<path fill="#ccffcc" stroke="orange" d="M126,-571C126,-571 30,-571 30,-571 27,-571 24,-568 24,-565 24,-565 24,-559 24,-559 24,-556 27,-553 30,-553 30,-553 126,-553 126,-553 129,-553 132,-556 132,-559 132,-559 132,-565 132,-565 132,-568 129,-571 126,-571"/>
<text text-anchor="start" x="32" y="-559.8" font-family="Helvetica,sans-Serif" font-size="9.00" fill="orange">cleanLocalStorage.js</text>
</a>
</g>
</g>
</g>
</svg>
